<svg width="175" height="44" viewBox="0 0 175 44" fill="none" xmlns="http://www.w3.org/2000/svg">
<mask id="mask0_173_1236" style="mask-type:luminance" maskUnits="userSpaceOnUse" x="98" y="0" width="12" height="8">
<path fill-rule="evenodd" clip-rule="evenodd" d="M98.5195 0H109.706V7.56292H98.5195V0Z" fill="white"/>
</mask>
<g mask="url(#mask0_173_1236)">
<path fill-rule="evenodd" clip-rule="evenodd" d="M109.525 6.56859C109.525 6.64606 109.856 7.35683 109.624 7.50237C109.389 7.6449 109.218 7.53245 109.152 7.20001C109.054 6.62876 109.203 6.16394 108.621 5.81721C108.288 5.62391 107.279 7.21994 103.815 5.76155C100.355 4.29864 98.734 1.01256 98.5216 0.0618563C98.5216 0.0618563 98.4277 -0.213802 99.511 0.398438C100.422 0.915908 101.553 0.725617 103.306 0.317207C105.287 -0.147238 109.575 1.08702 109.411 4.65215C109.411 4.65215 107.271 0.0231212 101.198 2.02456C101.198 2.02456 100.846 2.23102 101.564 2.23892C102.288 2.24832 106.167 1.69211 108.208 4.1516C109.228 5.37382 109.525 6.56859 109.525 6.56859Z" fill="white"/>
</g>
<path fill-rule="evenodd" clip-rule="evenodd" d="M31.7947 8.10548C25.2273 8.09608 19.5836 12.9643 18.6742 19.4428C17.7535 26.0285 22.0582 30.6361 29.1465 30.6485C32.1892 30.6512 35.5209 29.4395 37.9429 27.4993C38.8766 26.6889 38.2585 25.8254 38.2585 25.8254L37.2129 24.3231C37.2129 24.3231 36.5242 23.4634 35.5288 24.0884C34.5408 24.7642 32.55 25.4926 30.7462 25.4926C27.6343 25.4866 25.6742 23.5574 25.9916 20.7869C26.2332 20.7869 36.3566 20.8042 39.3877 20.8083C40.3401 20.8083 40.5454 20.0648 40.621 19.7553C40.6954 19.4146 40.7578 19.0743 40.8038 18.7373C41.1699 16.1533 40.6509 13.7412 39.283 11.7981C37.6422 9.45895 34.9118 8.11 31.7947 8.10548ZM35.7413 16.5116L26.6836 16.4981C26.6836 16.4981 27.2636 12.3448 31.6449 12.3516C35.8453 12.3538 35.7413 16.5116 35.7413 16.5116Z" fill="white"/>
<path fill-rule="evenodd" clip-rule="evenodd" d="M43.6443 30.6495C49.254 30.6581 50.4648 26.9365 50.7011 25.4138C50.884 24.236 54.0115 1.00324 54.0115 1.00324L53.6641 1.00211C45.7798 0.993462 45.0719 10.5422 45.0719 10.5422C45.0719 10.5422 42.4866 28.8819 42.4641 29.246C42.4503 29.6138 42.4282 30.6487 43.6443 30.6495Z" fill="white"/>
<path fill-rule="evenodd" clip-rule="evenodd" d="M103.362 8.72442C103.362 8.72442 103.688 9.52846 102.618 13.8326C101.551 18.128 100.541 23.5987 101.704 26.4782C102.865 29.3548 105.302 31.5616 108.293 31.7342C108.215 31.7342 107.244 28.8475 107.499 26.3692C107.757 23.8871 109.229 18.0404 109.765 15.3504C110.297 12.6495 109.182 10.1456 107.102 9.34343C105.027 8.54429 103.362 8.72442 103.362 8.72442Z" fill="white"/>
<path fill-rule="evenodd" clip-rule="evenodd" d="M174.518 31.3646C174.507 31.3469 173.735 29.4165 173.163 24.1764C172.584 18.9145 174.412 10.3758 174.432 10.2923L174.481 10.0569L174.273 9.93432C174.171 9.86813 171.661 8.41462 167.497 8.12994C163.656 7.89302 159.887 9.38413 156.984 12.2712C154.525 14.7232 153.315 17.5076 152.878 21.0009C152.357 25.1704 153.789 27.8307 155.503 29.4335C157.366 31.1728 160.136 30.752 160.756 30.5523C164.023 29.4936 165.713 26.4847 166.425 24.8484C168.38 31.4706 173.094 31.8286 174.059 31.8313C174.449 31.8313 174.688 31.7903 174.688 31.7903L174.518 31.3646C174.518 31.3646 174.507 31.3469 174.518 31.3646C174.518 31.3646 174.507 31.3469 174.518 31.3646ZM163.491 13.1873C164.688 11.9222 166.276 11.2543 168.228 11.2051C167.903 12.1264 167.06 14.4453 166.303 16.5374C165.754 18.0567 165.192 19.5993 164.77 20.7692C163.833 23.3897 162.685 24.34 161.988 24.3152C159.209 24.2201 160.566 16.2703 163.491 13.1873Z" fill="white"/>
<path fill-rule="evenodd" clip-rule="evenodd" d="M66.8184 8.10549C60.2477 8.09308 54.5957 12.9643 53.6934 19.4391C52.7739 26.0293 57.079 30.6361 64.1676 30.6485C67.2069 30.6519 70.5424 29.4387 72.9613 27.4978C73.8984 26.687 73.2803 25.8206 73.2803 25.8206L72.2333 24.3212C72.2333 24.3212 71.5434 23.4611 70.5495 24.0846C69.5593 24.7627 67.5708 25.4908 65.7673 25.4881C62.658 25.4859 60.6949 23.5551 61.0154 20.7854C61.2524 20.7888 71.3759 20.8042 74.4044 20.8065C75.3639 20.8065 75.5662 20.0663 75.6417 19.7497C75.7131 19.4101 75.78 19.0743 75.826 18.7373C76.1888 16.1549 75.6724 13.7397 74.3083 11.7981C72.6611 9.45595 69.9303 8.1085 66.8184 8.10549ZM70.7547 16.5092L61.707 16.4968C61.707 16.4968 62.2863 12.3405 66.6642 12.3477C70.8631 12.3544 70.7547 16.5092 70.7547 16.5092Z" fill="white"/>
<mask id="mask1_173_1236" style="mask-type:luminance" maskUnits="userSpaceOnUse" x="0" y="1" width="20" height="30">
<path fill-rule="evenodd" clip-rule="evenodd" d="M0 1.97049H19.8665V30.6495H0V1.97049Z" fill="white"/>
</mask>
<g mask="url(#mask1_173_1236)">
<path fill-rule="evenodd" clip-rule="evenodd" d="M19.4693 18.8097C19.4248 19.0294 19.3833 19.2561 19.3538 19.4829C19.3194 19.7258 19.2999 19.9624 19.2864 20.2023C19.2793 20.2117 19.2734 20.22 19.267 20.2343C19.267 20.2343 18.2308 25.3868 14.8135 25.3815C12.0602 25.3785 10.9339 23.8618 11.3741 20.7578C11.3741 20.7578 11.9308 16.8358 12.2203 14.8088C12.3134 14.1457 13.0295 13.6268 13.768 13.6234C15.4484 13.6283 18.051 13.632 18.051 13.632L18.5461 10.4189C18.5461 10.4189 18.8688 9.26851 17.044 9.26626C16.0261 9.2625 15.1175 9.26062 14.149 9.25836C13.1988 9.25911 13.0504 9.30161 12.9958 9.30161C13.025 9.11997 13.6098 5.02797 13.9404 2.71628C13.9426 1.74188 12.5617 1.86486 11.9073 2.28116C9.38325 3.90127 7.0989 5.48828 4.36396 7.51002C1.79879 9.4148 0.418609 10.8536 0.254453 11.7558C0.135169 12.4166 -0.412267 13.5925 0.601462 13.5933C0.815351 13.5952 4.28095 13.6114 4.50045 13.6114C4.53111 13.6114 4.55579 13.6129 4.58645 13.6129C4.54345 13.8874 3.45643 21.5415 3.45643 21.5415C2.60648 27.5108 6.68383 30.6442 11.1493 30.6495C16.8297 30.6563 18.9308 26.9118 19.7157 24.2402C20.3054 26.0412 18.9379 21.9101 19.4693 18.8097Z" fill="white"/>
</g>
<mask id="mask2_173_1236" style="mask-type:luminance" maskUnits="userSpaceOnUse" x="76" y="6" width="23" height="38">
<path fill-rule="evenodd" clip-rule="evenodd" d="M76.0918 6.99219H98.6443V43.4375H76.0918V6.99219Z" fill="white"/>
</mask>
<g mask="url(#mask2_173_1236)">
<path fill-rule="evenodd" clip-rule="evenodd" d="M77.2271 6.99219C78.8074 12.7663 79.0433 14.4876 78.1788 22.5674C77.834 25.7208 77.2952 27.9546 76.8611 29.7503C76.1596 32.6592 75.697 34.5855 76.5649 37.7249C77.9271 42.6747 82.8077 43.4757 83.1992 43.4362C83.2676 42.6972 82.8847 41.4889 82.7882 38.2202C82.6555 33.6618 83.5331 31.3084 83.7661 30.2964C84.2855 30.3607 84.8157 30.3994 85.3557 30.3994C89.6622 30.4066 94.1715 28.2062 96.074 25.1777C99.4899 20.1486 98.9847 14.7599 97.5182 11.6705C96.4465 9.41783 94.7548 8.02337 92.8792 7.85075C88.9469 7.48521 86.1611 12.0744 85.1564 14.2161C83.3267 7.72703 79.9598 6.9967 77.2271 6.99219ZM90.6788 22.2202C89.3259 25.68 87.5236 27.1704 84.6271 27.2076H84.5893C84.5497 27.2151 84.5104 27.2151 84.4727 27.2174C84.7221 26.2321 85.824 21.8599 86.6628 19.2192C87.6765 15.9981 88.8622 14.3021 90.0977 14.3047C90.1545 14.3047 90.2185 14.3092 90.2783 14.313C90.4993 14.3423 90.6994 14.5036 90.8717 14.7898C91.6978 16.1786 91.6032 19.8543 90.6788 22.2202Z" fill="white"/>
</g>
<path fill-rule="evenodd" clip-rule="evenodd" d="M114.762 15.7932C114.762 15.7932 110.39 13.0103 112.989 10.2962C115.123 8.06646 118.957 7.94461 121.99 8.18529C125.219 8.44215 130.107 9.28266 130.46 13.5864C130.711 16.6348 129.216 18.074 124.24 22.2649C121.882 24.2412 119.627 26.0884 119.413 26.9537C120.553 26.4622 134.848 24.8478 131.676 35.5345C126.857 30.8934 121.77 30.9397 120.508 30.8942C116.884 31.0078 112.681 30.9273 112.204 26.522C112.128 25.8534 112.07 22.9166 117.962 18.0958C123.296 13.7282 123.322 12.1885 122.223 11.6718C120.874 11.0397 116.163 12.3849 114.762 15.7932Z" fill="white"/>
<path fill-rule="evenodd" clip-rule="evenodd" d="M135.466 15.826C135.466 15.826 131.091 13.0431 133.689 10.3263C135.825 8.09927 139.66 7.97667 142.694 8.21961C145.924 8.47534 150.811 9.31397 151.164 13.6196C151.414 16.671 149.92 18.1068 144.938 22.2959C142.583 24.2777 140.331 26.1216 140.115 26.9843C141.257 26.492 155.555 24.8791 152.381 35.5684C147.561 30.9247 142.475 30.9725 141.211 30.9285C137.587 31.0413 133.382 30.9586 132.903 26.5548C132.832 25.8862 132.773 22.9487 138.665 18.1253C143.999 13.761 144.026 12.2277 142.923 11.7061C141.574 11.0695 136.865 12.4184 135.466 15.826Z" fill="white"/>
</svg>
